<?xml version="1.0" encoding="utf-8"?>
<!-- Generator: Adobe Illustrator 26.0.1, SVG Export Plug-In . SVG Version: 6.00 Build 0)  -->
<svg version="1.1" id="Ebene_1" xmlns="http://www.w3.org/2000/svg" xmlns:xlink="http://www.w3.org/1999/xlink" x="0px" y="0px"
	 viewBox="0 0 135.5 107.8" style="enable-background:new 0 0 135.5 107.8;" xml:space="preserve">
<style type="text/css">
	.st0{fill:#F2F2F2;}
</style>
<path id="Pfad_556" class="st0" d="M51,0h61.6v75.2L51,107.8L0.2,76.2V0H51z"/>
<g id="Black_RGB">
	<polygon points="90.7,64.5 90.7,74.8 51.4,94 2.7,63.3 2.7,16 50,3.1 90.6,30.9 90.6,41.6 93.4,41.6 93.4,29.5 50.5,0.2 0,13.9 
		0,64.8 51.2,97.1 93.4,76.5 93.4,64.5 	"/>
	<path d="M14,31h2.6l3,8.7l3.1-8.7h2.4v10.6h-1.4V32l-3.5,9.5h-1.4L15.5,32v9.5H14V31z"/>
	<path d="M28.9,34.2v4.7c0,0.7,0.2,1.6,1.6,1.6c0.7,0,1.3-0.3,1.7-0.8c0.2-0.4,0.4-0.9,0.3-1.4v-4.2h1.4v6c0,0.2,0,1,0,1.4h-1.4
		v-1.3c-0.4,0.9-1.4,1.4-2.4,1.3c-1.3,0.2-2.5-0.7-2.7-2c0-0.2,0-0.3,0-0.5v-5L28.9,34.2z M28.8,31h1.4v1.5h-1.4V31z M31.5,31h1.4
		v1.5h-1.4L31.5,31z"/>
	<path d="M36.3,35v-0.8h1.4v1.2c0.4-0.9,1.4-1.4,2.4-1.3c1.4-0.1,2.5,0.9,2.7,2.2c0,0.1,0,0.2,0,0.3v5h-1.4v-4.7
		c0.1-0.5-0.1-0.9-0.4-1.3c-0.4-0.3-0.8-0.5-1.3-0.5c-1.1,0-2,1-1.9,2.1v0.1v4.2h-1.4L36.3,35L36.3,35z"/>
	<path d="M49.4,36.5c0-0.8-0.6-1.5-1.4-1.5h-0.1C46,35,46,37.2,46,37.8c0,1.5,0.4,2.9,1.8,2.9c0.8,0,1.6-0.6,1.6-1.5v-0.1h1.4
		c-0.1,1.5-1.4,2.7-2.9,2.6h-0.1c-0.9,0-1.8-0.3-2.4-1c-0.6-0.8-1-1.8-0.9-2.8c0-3.1,1.9-4,3.3-4c0.8,0,1.7,0.3,2.3,0.9
		c0.4,0.5,0.6,1,0.6,1.6L49.4,36.5z"/>
	<path d="M52.5,31h1.4v4.3c0.5-0.8,1.5-1.3,2.4-1.2c0.9,0,1.8,0.4,2.3,1.2c0.2,0.5,0.3,1.1,0.2,1.7v4.6h-1.4v-4.3
		c0-0.7,0-2.1-1.6-2.1c-0.7,0-1.4,0.4-1.7,1c-0.2,0.5-0.3,1-0.2,1.5v3.9h-1.4V31z"/>
	<path d="M62.1,38.1c0,1.5,0.6,2.7,2.1,2.7c0.9,0.1,1.7-0.6,1.7-1.5l0,0h1.3c0,0.6-0.3,1.1-0.6,1.5c-0.7,0.7-1.6,1.1-2.5,1
		c-2.3,0-3.4-1.4-3.4-3.8c-0.2-1.3,0.4-2.6,1.5-3.5c0.6-0.4,1.3-0.6,2-0.5c3.3,0,3.2,2.9,3.2,4.1H62.1z M66,37.1
		c0-0.7-0.1-2.2-1.8-2.2c-1.1,0-2,0.9-2,2c0,0.1,0,0.1,0,0.2H66z"/>
	<path d="M69.3,35v-0.8h1.4v1.2C71.1,34.5,72,34,73,34c1.4-0.1,2.5,0.9,2.7,2.2c0,0.1,0,0.2,0,0.3v5h-1.4v-4.7
		c0-0.5-0.1-0.9-0.4-1.3c-0.4-0.3-0.8-0.5-1.3-0.5c-1.1,0-2,1-1.9,2.1v0.1v4.2h-1.4L69.3,35L69.3,35z"/>
	<path d="M78,39.8h1.6v1.8H78V39.8z"/>
	<path d="M14,48.4h4.5c1.4-0.1,2.8,0.2,4,0.9c1.4,1,2.1,2.7,2,4.4c0,2.3-0.7,4.1-2.9,4.9c-1,0.3-2.1,0.5-3.1,0.4H14V48.4L14,48.4z
		 M17,57h1.3c2,0,3.2-0.8,3.2-3.3c0-3.2-2.4-3.2-3.3-3.2H17V57z"/>
	<path d="M26.1,48.5H29v2h-2.8v-2H26.1z M26.1,51.7h2.8V59h-2.7L26.1,51.7z"/>
	<path d="M38.8,51.6v6.9c0.1,1-0.4,2-1.2,2.6c-0.9,0.6-1.9,0.9-3,0.8c-1.1,0.1-2.2-0.2-3.1-0.9c-0.5-0.4-0.7-1-0.7-1.6h2.6
		c0,0.5,0.4,0.9,1.2,0.9c1.4,0,1.5-1,1.5-1.8v-1c-0.5,0.8-1.4,1.2-2.4,1.2c-1.6,0-3.3-1-3.3-3.7c0-2,1-3.7,3.3-3.7
		c1-0.1,1.9,0.4,2.4,1.2v-1.1h2.7V51.6z M34.7,53c-0.9,0-1.4,0.8-1.4,2.1c0,0.8,0.2,2.1,1.4,2.1s1.4-1.6,1.4-2.1
		C36.1,54.7,36.1,53,34.7,53z"/>
	<path d="M40.7,48.5h2.8v2h-2.8V48.5z M40.7,51.7h2.8V59h-2.7L40.7,51.7z"/>
	<path d="M50.5,51.7v1.8h-1.8V56c0,0.9,0,1.3,1.1,1.3c0.2,0,0.5,0,0.7,0V59c-0.6,0.1-1.2,0.1-1.8,0.1c-2.2,0-2.6-0.7-2.6-2.2v-3.6
		h-1.4v-1.8h1.4v-1.1l2.7-1.1v2.2h1.7V51.7z"/>
	<path d="M56.6,59c-0.1-0.3-0.1-0.7-0.1-1.1c-0.5,0.8-1.4,1.3-2.4,1.2c-1.8,0-2.6-1-2.6-2.3c0-2,1.9-2.8,5-2.6
		c0-0.8-0.1-1.5-0.9-1.5c-0.5,0-1,0.3-1,1.1H52c0-0.6,0.2-1.1,0.6-1.5c0.9-0.7,1.9-1,3-0.9c1-0.1,2,0.2,2.8,0.8
		c0.5,0.5,0.7,1.2,0.6,1.9v3.4c0,0.5,0,0.9,0.2,1.4L56.6,59z M54.2,56.6c0,0.6,0.4,1,1,1c0.5,0,0.9-0.3,1.1-0.7
		c0.2-0.4,0.2-0.9,0.2-1.4C55.3,55.6,54.2,55.6,54.2,56.6z"/>
	<path d="M61,48.4h2.8V59H61V48.4z"/>
	<path d="M65.7,56.8h2.6V59h-2.6V56.8z"/>
	<path d="M74.3,48.5h8v2h-5v2.2h4.8v2h-4.8V57h5.2v2h-8.1L74.3,48.5L74.3,48.5z"/>
	<path d="M84.1,53.2L84,51.7h2.7v1.5c0.4-1.1,1.5-1.8,2.6-1.6V54c-0.3,0-0.4,0-0.6,0c-1-0.1-1.8,0.6-1.9,1.5c0,0.2,0,0.3,0,0.5v3.1
		h-2.7V53.2z"/>
	<path d="M90.7,48.4h2.8V59h-2.8V48.4z"/>
	<path d="M97.4,55.9c0,0.4,0,1.8,1.4,1.8c0.6,0.1,1.2-0.4,1.3-1v-0.1h2.6c-0.2,1.8-1.9,2.6-3.8,2.6c-2.6,0-4-1.3-4-3.7
		s1.2-4.1,3.9-4.1c2,0,3,0.8,3.5,1.9c0.3,0.8,0.5,1.7,0.4,2.6H97.4z M100.1,54.4c0-0.4-0.1-1.5-1.3-1.5s-1.3,1.2-1.3,1.5H100.1z"/>
	<path d="M107,48.4v4c0.6-0.7,1.5-1,2.3-1c1.1,0,2.2,0.6,2.7,1.5c0.4,0.7,0.5,1.5,0.5,2.3c0.1,1.1-0.3,2.1-1,2.9
		c-0.6,0.7-1.4,1-2.3,1c-1,0-1.9-0.4-2.5-1.2l-0.1,1.1H104c0.1-0.8,0.1-1.8,0.1-1.8v-8.8H107z M108.3,57.5c1.4,0,1.4-1.8,1.4-2.2
		c0-0.8-0.1-2.2-1.3-2.2s-1.5,1.7-1.5,2.2S107,57.5,108.3,57.5L108.3,57.5z"/>
	<path d="M116.3,55.9c0,0.4,0,1.8,1.4,1.8c0.6,0.1,1.2-0.4,1.3-1v-0.1h2.6c-0.2,1.8-1.9,2.6-3.8,2.6c-2.6,0-4-1.3-4-3.7
		s1.2-4.1,3.9-4.1c2,0,3,0.8,3.5,1.9c0.4,0.8,0.5,1.7,0.4,2.6H116.3z M119,54.4c0-0.4-0.1-1.5-1.3-1.5s-1.3,1.2-1.3,1.5H119z"/>
	<path d="M123.1,53.2l-0.1-1.6h2.8v1.1c0.5-0.9,1.5-1.4,2.5-1.3c2.7,0,2.7,2,2.7,3.1V59h-2.8v-4.2c0-0.5,0-1.5-1.1-1.5
		s-1.2,1.3-1.2,1.5V59h-2.7L123.1,53.2L123.1,53.2z"/>
	<path d="M132.9,56.8h2.6V59h-2.6V56.8z"/>
</g>
</svg>
